#!OML:ASF E:\Style4\Style4.ASF
:FULLY-SPECIFIED
:DEGREES
3387
root 0.349288 17.3699 -2.29188 1.08392 -4.06017 3.20236
lowerback 12.3018 2.89405 -2.6625
upperback 6.83411 3.52057 -0.845478
thorax 0.165831 1.7011 0.196153
lowerneck 0.903168 -0.305618 -4.09136
upperneck 6.78687 -0.573001 3.77529
head 2.01434 -0.303349 1.9
rclavicle -4.67144e-015 4.77083e-015
rhumerus 24.2563 16.0981 -66.7843
rradius 41.5736
rwrist 17.7811
rhand -25.75 19.0209
rfingers 7.12502
rthumb 0.787233 -10.9574
lclavicle -4.67144e-015 4.77083e-015
lhumerus 22.6843 -23.412 57.7442
lradius 49.0153
lwrist -10.1781
lhand -16.9039 28.1023
lfingers 7.12502
lthumb 9.32808 57.8759
rfemur -24.9215 1.85912 13.6857
rtibia 43.3213
rfoot -18.7908 -9.29265
rtoes -11.2113
lfemur -22.2422 2.17965 -23.2918
ltibia 41.0233
lfoot -20.258 8.19134
ltoes -12.7495
3388
root 0.346644 17.3692 -2.28963 1.096 -4.0358 3.2017
lowerback 12.3339 2.90006 -2.6526
upperback 6.82418 3.52761 -0.884772
thorax 0.141116 1.70587 0.147198
lowerneck 1.16049 -0.763043 -4.17111
upperneck 5.91627 -1.18015 3.88832
head 1.71516 -0.60622 1.9361
rclavicle -2.0276e-014 8.15017e-015
rhumerus 24.2491 16.1056 -66.6389
rradius 41.6322
rwrist 17.7165
rhand -25.6418 19.0979
rfingers 7.12502
rthumb 0.891738 -10.88
lclavicle -2.0276e-014 8.15017e-015
lhumerus 22.7401 -23.5467 57.5685
lradius 49.069
lwrist -10.2115
lhand -16.8592 28.1614
lfingers 7.12502
lthumb 9.37117 57.9331
rfemur -24.9245 1.87702 13.6929
rtibia 43.3311
rfoot -18.7643 -9.36614
rtoes -11.3051
lfemur -22.2634 2.17227 -23.2838
ltibia 41.0518
lfoot -20.3675 8.28301
ltoes -13.3098
3389
root 0.344707 17.3692 -2.28681 1.117 -3.98569 3.17253
lowerback 12.3501 2.90192 -2.62416
upperback 6.82342 3.5323 -0.901213
thorax 0.134135 1.70937 0.11293
lowerneck 1.51425 -1.24042 -4.3982
upperneck 4.81772 -1.81479 4.08816
head 1.33568 -0.926036 2.0313
rclavicle 3.41413e-014 -9.14409e-015
rhumerus 24.1815 16.1747 -66.4234
rradius 41.7966
rwrist 17.5452
rhand -25.5231 19.2374
rfingers 7.12502
rthumb 1.00636 -10.7399
lclavicle 3.41413e-014 -9.14409e-015
lhumerus 22.8187 -23.6804 57.4178
lradius 49.112
lwrist -10.2144
lhand -16.9008 28.237
lfingers 7.12502
lthumb 9.33101 58.0105
rfemur -24.9227 1.84691 13.736
rtibia 43.3254
rfoot -18.6923 -9.42373
rtoes -11.6071
lfemur -22.2936 2.13835 -23.2496
ltibia 41.0853
lfoot -20.4082 8.28377
ltoes -13.4618
3390
root 0.343193 17.3694 -2.28314 1.19055 -3.93743 3.1133
lowerback 12.352 2.90052 -2.5732
upperback 6.78408 3.53483 -0.914261
thorax 0.0954024 1.71281 0.0694414
lowerneck 1.73926 -1.69443 -4.49685
upperneck 3.90844 -2.41342 4.21675
head 1.03971 -1.22625 2.08665
rclavicle 4.17448e-015 -2.5842e-015
rhumerus 24.1117 16.1682 -66.311
rradius 41.8473
rwrist 17.5154
rhand -25.441 19.3212
rfingers 7.12502
rthumb 1.08568 -10.6558
lclavicle 4.17448e-015 -2.5842e-015
lhumerus 22.9103 -23.8554 57.2446
lradius 49.0396
lwrist -10.1966
lhand -17.0258 28.0761
lfingers 7.12502
lthumb 9.21048 57.855
rfemur -24.9656 1.82556 13.8041
rtibia 43.3129
rfoot -18.6605 -9.47191
rtoes -11.7739
lfemur -22.3815 2.14227 -23.1825
ltibia 41.1181
lfoot -20.3255 8.12019
ltoes -12.9033
3391
root 0.342051 17.3692 -2.27987 1.23824 -3.88392 3.05332
lowerback 12.3997 2.89683 -2.51971
upperback 6.73801 3.53279 -0.917296
thorax 0.0246691 1.71407 0.0329104
lowerneck 1.82081 -2.11457 -4.47357
upperneck 3.25121 -2.96212 4.23235
head 0.844063 -1.50013 2.0859
rclavicle -2.43511e-015 -2.78299e-015
rhumerus 24.056 16.1373 -66.1883
rradius 41.825
rwrist 17.526
rhand -25.3556 19.3892
rfingers 7.12502
rthumb 1.16809 -10.5873
lclavicle -2.43511e-015 -2.78299e-015
lhumerus 22.9505 -24.0285 57.1341
lradius 48.9514
lwrist -10.2388
lhand -17.0486 27.9378
lfingers 7.12502
lthumb 9.18845 57.7177
rfemur -24.9778 1.77761 13.8741
rtibia 43.2956
rfoot -18.7021 -9.45984
rtoes -11.5382
lfemur -22.4391 2.11391 -23.1144
ltibia 41.1553
lfoot -20.2925 8.02279
ltoes -12.5262
3392
root 0.340812 17.3701 -2.27549 1.2703 -3.85906 3.02056
lowerback 12.4115 2.8782 -2.5662
upperback 6.71211 3.50285 -0.876981
thorax -0.0134302 1.69767 0.102849
lowerneck 1.91491 -2.49857 -4.49148
upperneck 2.61826 -3.46346 4.21767
head 0.652644 -1.75142 2.08546
rclavicle 6.75868e-015 1.98785e-016
rhumerus 24.0541 16.3113 -65.9194
rradius 41.8071
rwrist 17.4503
rhand -25.3283 19.4208
rfingers 7.12502
rthumb 1.19446 -10.5556
lclavicle 6.75868e-015 1.98785e-016
lhumerus 22.8796 -24.0891 57.1039
lradius 48.886
lwrist -10.29
lhand -16.9706 27.8889
lfingers 7.12502
lthumb 9.26372 57.6653
rfemur -24.9847 1.74142 13.9137
rtibia 43.286
rfoot -18.7169 -9.4681
rtoes -11.6708
lfemur -22.4746 2.10526 -23.0721
ltibia 41.1979
lfoot -20.3892 7.99571
ltoes -12.639
3393
root 0.340408 17.3708 -2.2696 1.33767 -3.85898 2.95765
lowerback 12.3251 2.85281 -2.58416
upperback 6.70779 3.47142 -0.829014
thorax 0.0249615 1.68039 0.170606
lowerneck 1.94802 -2.86102 -4.53365
upperneck 2.02203 -3.93658 4.28006
head 0.48474 -1.98804 2.11589
rclavicle -3.55825e-014 1.2921e-014
rhumerus 24.1453 16.4879 -65.6745
rradius 41.6927
rwrist 17.4623
rhand -25.3433 19.4608
rfingers 7.12502
rthumb 1.18003 -10.5157
lclavicle -3.55825e-014 1.2921e-014
lhumerus 22.8379 -24.211 56.9699
lradius 48.8539
lwrist -10.2113
lhand -17.0541 27.766
lfingers 7.12502
lthumb 9.18317 57.546
rfemur -25.0314 1.71834 13.9829
rtibia 43.2911
rfoot -18.7292 -9.4659
rtoes -11.7673
lfemur -22.5457 2.12164 -23.0049
ltibia 41.2438
lfoot -20.4951 8.14423
ltoes -13.5716
3394
root 0.339056 17.3693 -2.26471 1.41727 -3.80988 2.92725
lowerback 12.2417 2.81803 -2.6225
upperback 6.69683 3.42525 -0.793305
thorax 0.0549179 1.65562 0.238415
lowerneck 1.92301 -3.18696 -4.66349
upperneck 1.52183 -4.36353 4.45546
head 0.360228 -2.20162 2.19908
rclavicle 1.48095e-014 1.19271e-015
rhumerus 24.2079 16.6009 -65.4889
rradius 41.6031
rwrist 17.5273
rhand -25.1588 19.5532
rfingers 7.12502
rthumb 1.35822 -10.4222
lclavicle 1.48095e-014 1.19271e-015
lhumerus 22.8467 -24.428 56.7621
lradius 48.7531
lwrist -10.1354
lhand -17.1051 27.6652
lfingers 7.12502
lthumb 9.13394 57.4474
rfemur -25.0952 1.66973 14.0193
rtibia 43.308
rfoot -18.7413 -9.49096
rtoes -11.6894
lfemur -22.6477 2.13565 -22.9738
ltibia 41.2844
lfoot -20.4751 8.22511
ltoes -14.2192
